<svg width="500" height="500" xmlns="http://www.w3.org/2000/svg">

 <g>
  <title>background</title>
  <rect fill="none" id="canvas_background" height="502" width="502" y="-1" x="-1"/>
 </g>
 <g>
  <title>Layer 1</title>
  <path stroke="null" fill="#ffff00" transform="rotate(-90 249.99998474121097,250.0000152587891) " id="svg_3" d="m114.099985,431.200859c-2.543746,0 -5.087341,-0.641448 -7.387826,-1.931743c-4.762993,-2.669076 -7.712175,-7.704776 -7.712175,-13.168258l0,-332.200022c0,-5.463482 2.949181,-10.499182 7.712175,-13.168258c4.770392,-2.676475 10.617264,-2.565792 15.262175,0.280105l271.800018,166.100011c4.490287,2.750163 7.225652,7.631239 7.225652,12.888153s-2.735365,10.13799 -7.225652,12.888153l-271.800018,166.100011c-2.410866,1.474515 -5.146382,2.211848 -7.874349,2.211848zm15.100001,-320.373701l0,278.347378l227.738668,-139.173689l-227.738668,-139.173689z"/>
 </g>
</svg>